<svg xmlns="http://www.w3.org/2000/svg" viewBox="0 0 32 32">
  <path d="M10.7 14.3l-1.2 4 1.4-.1 1-3.6c.2-.6.3-1.2.3-1.7h0c0 .5-.2 1.1-.4 1.7l-1.1 3.6h1.4l1-3.6c.2-.7.4-1.3.4-1.7h0c0 .5-.1 1-.3 1.7l-.9 3.6h1.3l1.5-5.3h-2l-.8 3.2c-.2.6-.3 1.1-.3 1.6h0c0-.5-.2-1-.4-1.6l-.9-3.2h-2l-1.5 5.3h1.2l1-3.6z" fill="#252F3E"/>
  <path d="M18 17.5c-.3.2-.9.3-1.4.3-1.1 0-1.7-.7-1.7-1.7s.7-1.8 1.6-1.8c.5 0 .9.1 1.1.2l.3-1c-.3-.2-.8-.3-1.5-.3-1.7 0-2.8 1.1-2.8 2.9 0 1.5.9 2.7 2.6 2.7.7 0 1.2-.1 1.6-.3l-.2-1z" fill="#252F3E"/>
  <path d="M22 13.4c-.4-.2-.9-.3-1.5-.3-1.6 0-2.7 1.1-2.7 2.9 0 1.5.9 2.7 2.4 2.7.6 0 1.1-.1 1.5-.3l-.2-.9c-.3.2-.7.2-1.1.2-.9 0-1.4-.6-1.4-1.6h3v-.5c0-1.3-.5-2.2-2-2.2zm-.8 2h-1.8c.1-.6.5-1.2 1-1.2s.8.5.8 1.2z" fill="#252F3E"/>
  <path d="M5.4 22.1c2.5 1.8 5.7 2.9 9.2 2.9 3.9 0 7.5-1.4 10.3-3.7.3-.3 0-.6-.3-.4-2.9 1.7-6.5 2.8-10.3 2.8-3.2 0-6.6-.7-9.3-2-.5-.2-.8.3-.3.5z" fill="#FF9900"/>
  <path d="M26 20.6c-.4-.5-2.6-.2-3.6-.1-.3 0-.3-.2-.1-.4 1.8-1.2 4.6-.9 5-.5.3.4-.1 3.3-1.7 4.7-.3.2-.5.1-.4-.2.4-.9 1.2-3 .8-3.5z" fill="#FF9900"/>
</svg>
