<svg xmlns="http://www.w3.org/2000/svg" viewBox="0 0 32 32" fill="#2496ED">
  <rect x="3" y="16" width="5" height="4" rx="0.5"/>
  <rect x="9" y="16" width="5" height="4" rx="0.5"/>
  <rect x="15" y="16" width="5" height="4" rx="0.5"/>
  <rect x="3" y="11" width="5" height="4" rx="0.5"/>
  <rect x="9" y="11" width="5" height="4" rx="0.5"/>
  <rect x="15" y="11" width="5" height="4" rx="0.5"/>
  <rect x="9" y="6" width="5" height="4" rx="0.5"/>
  <rect x="15" y="6" width="5" height="4" rx="0.5"/>
  <rect x="21" y="16" width="5" height="4" rx="0.5"/>
  <path d="M29.5 14.5c-1-.7-3.3-.9-5-.6-.2-1.7-1.2-3.2-2.9-4.5l-1-.7-.7 1c-.9 1.3-1.1 3.5-.2 5-0.5.2-1.4.5-2.7.5H1.2c-.4 2 .1 4.6 1.5 6.4C4.2 23.6 6.5 25 10 25c7.3 0 12.7-3.4 15.2-9.5 1 0 3.1.1 4.2-2l.3-.6-1.2-.7z"/>
</svg>
