<svg xmlns="http://www.w3.org/2000/svg" viewBox="0 0 32 32">
  <path d="M20.3 10.7h1.2l3.4-3.4.2-1.4A13 13 0 0 0 16 2.5a13.1 13.1 0 0 0-11 6l1.2-.2 6.8-1.1.5-.5a6.3 6.3 0 0 1 6.8 4z" fill="#EA4335"/>
  <path d="M26.5 12.3a13.1 13.1 0 0 0-4-6.4l-4.8 4.8a6.3 6.3 0 0 1 2.3 5v.7a3.2 3.2 0 0 1 0 6.3H16l-.7.7v3.8l.7.7h4a9.9 9.9 0 0 0 6.5-10.6z" fill="#4285F4"/>
  <path d="M12 27.9h4v-5.2h-4a3.1 3.1 0 0 1-1.3-.3l-.9.3-2.5 2.4-.2.9A9.9 9.9 0 0 0 12 27.9z" fill="#34A853"/>
  <path d="M12 8.1a9.9 9.9 0 0 0-5 17.9l3.6-3.6A3.2 3.2 0 0 1 12 16a3.2 3.2 0 0 1 3-2.1l3.6-3.6A9.9 9.9 0 0 0 12 8.1z" fill="#FBBC05"/>
</svg>
